HIERARCHY
ROOT Hips
{
	OFFSET 0.00000 0.00000 0.00000
	CHANNELS 6 Xposition Yposition Zposition Zrotation Yrotation Xrotation 
	JOINT RightUpLegDummy
	{
		OFFSET 0 0 0
		CHANNELS 3 Zrotation Yrotation Xrotation
		JOINT RightUpLeg
		{
			OFFSET -3.52197 -3.41223 0.04002
			CHANNELS 3 Zrotation Yrotation Xrotation
			JOINT RightLeg
			{
				OFFSET 0.00006 -17.42390 1.60435
				CHANNELS 3 Zrotation Yrotation Xrotation
				JOINT RightFoot
				{
					OFFSET 0.06153 -16.50078 -1.63901
					CHANNELS 3 Zrotation Yrotation Xrotation
					JOINT RightToes
					{
						OFFSET 0.00298 -1.73825 3.34613
						CHANNELS 3 Zrotation Yrotation Xrotation
						End Site
						{
							OFFSET 0.00480 -0.05416 3.85043
						}
					}
				}
			}
		}
	}
	JOINT SpineDummy
	{
		OFFSET 0 0 0
		CHANNELS 3 Zrotation Yrotation Xrotation
		JOINT Spine
		{
			OFFSET 0.00000 4.68130 0.00000
			CHANNELS 3 Zrotation Yrotation Xrotation
			JOINT Spine1
			{
				OFFSET -0.00000 10.10138 0.05002
				CHANNELS 3 Zrotation Yrotation Xrotation
				JOINT HEadDummy
				{
					OFFSET 0 0 0
					CHANNELS 3 Zrotation Yrotation Xrotation
					JOINT Head
					{
						OFFSET -0.00000 3.43865 0.00438
						CHANNELS 3 Zrotation Yrotation Xrotation
						End Site
						{
							OFFSET -0.11417 5.02924 0.98962
						}
					}
				}
				JOINT LeftShoulder1Dummy
				{
					OFFSET 0 0 0
					CHANNELS 3 Zrotation Yrotation Xrotation
					JOINT LeftShoulder1
					{
						OFFSET 3.53937 -0.14262 -0.08662
						CHANNELS 3 Zrotation Yrotation Xrotation
						JOINT LeftArm
						{
							OFFSET 4.04833 -0.00133 0.12681
							CHANNELS 3 Zrotation Yrotation Xrotation
							JOINT LeftForeArm
							{
								OFFSET 10.33880 -0.01036 -0.55515
								CHANNELS 3 Zrotation Yrotation Xrotation
								JOINT LeftHand
								{
									OFFSET 8.69677 0.07543 0.40060
									CHANNELS 3 Zrotation Yrotation Xrotation
									End Site
									{
										OFFSET 5.28377 -0.21905 0.59205
									}
								}
							}
						}
					}
				}
				JOINT RightShoulderDummy
				{
					OFFSET 0 0 0
					CHANNELS 3 Zrotation Yrotation Xrotation
					JOINT RightShoulder
					{
						OFFSET -3.53937 -0.14262 -0.08660
						CHANNELS 3 Zrotation Yrotation Xrotation
						JOINT RightArm
						{
							OFFSET -4.04833 -0.00133 0.12683
							CHANNELS 3 Zrotation Yrotation Xrotation
							JOINT RightForeArm
							{
								OFFSET -10.37987 -0.01039 -0.55511
								CHANNELS 3 Zrotation Yrotation Xrotation
								JOINT RightHand
								{
									OFFSET -8.67398 0.07538 0.40058
									CHANNELS 3 Zrotation Yrotation Xrotation
									End Site
									{
										OFFSET -5.24810 -0.21916 0.59204
									}
								}
							}
						}
					}
				}
			}
		}
	}
	JOINT LeftUpLegDummy
	{
		OFFSET 0 0 0
		CHANNELS 3 Zrotation Yrotation Xrotation
		JOINT LeftUpLeg
		{
			OFFSET 3.52197 -3.41223 0.04002
			CHANNELS 3 Zrotation Yrotation Xrotation
			JOINT LeftLeg
			{
				OFFSET -0.00012 -17.42399 1.60337
				CHANNELS 3 Zrotation Yrotation Xrotation
				JOINT LeftFoot
				{
					OFFSET -0.09972 -16.50070 -1.63802
					CHANNELS 3 Zrotation Yrotation Xrotation
					JOINT LeftToes
					{
						OFFSET -0.01575 -1.73823 3.34611
						CHANNELS 3 Zrotation Yrotation Xrotation
						End Site
						{
							OFFSET 0.03150 -0.01868 3.85031
						}
					}
				}
			}
		}
	}
}
MOTION
Frames: 19
Frame Time: 0.033333
26.6127 38.1221 -10.6616 0.0812 7.8860 -7.1877 0.0000 0.0000 0.0000 9.1489 0.8918 -11.8605 -5.2917 -14.3339 22.3095 -9.0648 0.3627 -6.4778 0.0000 -0.0000 0.0000 0.0000 0.0000 0.0000 0.3118 -0.9682 11.1790 4.9313 -1.7647 -2.7359 -0.0000 0.0000 -0.0000 3.2667 -5.1889 -0.1659 -0.0000 0.0000 -0.0000 -34.8741 -2.5985 2.4969 -42.7350 -12.3323 -17.6461 -11.1318 5.2676 42.6271 12.2838 -4.8814 -1.0480 -0.0000 0.0000 -0.0000 34.4524 5.0662 3.4681 38.8027 3.3495 -20.5528 9.5168 -0.8950 20.1899 -11.0736 1.6576 -0.6583 0.0000 0.0000 0.0000 5.8888 15.1493 -0.8616 0.2365 -0.1794 58.6345 -5.4206 0.9531 9.5533 0.0000 0.0000 -0.0000
26.7949 38.1662 -9.7962 0.3369 6.4687 -7.3430 0.0000 0.0000 0.0000 8.9961 0.5166 -10.4068 -4.7216 -12.7486 22.9799 -8.6347 0.1827 -8.5158 0.0000 -0.0000 0.0000 0.0000 0.0000 0.0000 0.3558 -0.6952 11.2353 4.6070 -1.4398 -2.6582 -0.0000 0.0000 -0.0000 3.5065 -5.5662 0.2320 -0.0000 0.0000 -0.0000 -34.8619 -2.6132 2.5021 -42.6819 -12.7163 -17.0332 -11.2692 5.2157 44.5677 11.9252 -5.0938 -1.0362 -0.0000 0.0000 -0.0000 34.4235 5.0515 3.4596 38.8053 4.0955 -19.6428 9.8410 1.1660 18.5857 -11.3010 1.8720 -0.6914 0.0000 0.0000 0.0000 4.6412 11.6836 -4.8468 1.3213 0.2745 61.5419 -2.9861 0.4246 6.2993 0.0000 0.0000 -0.0000
26.9766 38.2178 -8.9317 0.5668 4.3996 -7.4708 0.0000 0.0000 0.0000 8.7881 0.1024 -8.8527 -3.6144 -10.4446 23.4055 -7.9162 0.0338 -10.3043 0.0000 -0.0000 0.0000 0.0000 0.0000 0.0000 0.7836 -0.2064 11.3843 3.9384 -0.8186 -2.8426 -0.0000 0.0000 -0.0000 3.4678 -5.7804 1.1635 -0.0000 0.0000 -0.0000 -34.7727 -2.5782 2.4823 -42.6220 -12.9045 -17.1386 -11.0804 5.1843 45.8258 11.8421 -5.5422 -1.0713 -0.0000 0.0000 -0.0000 34.4291 5.0581 3.4628 38.8747 4.7633 -18.4584 10.2036 3.2888 17.3844 -11.1902 1.8165 -0.6796 0.0000 0.0000 0.0000 3.8535 8.7983 -8.1751 3.9423 1.3642 61.8661 -0.9149 0.0962 3.2833 0.0000 0.0000 -0.0000
27.1331 38.2968 -8.0609 0.8666 1.9323 -7.6697 0.0000 0.0000 0.0000 8.4618 -0.2769 -7.0647 -2.3881 -7.9263 23.5207 -7.1984 -0.0653 -11.6918 0.0000 -0.0000 0.0000 0.0000 0.0000 0.0000 1.2306 0.3274 11.6304 3.1401 -0.1251 -3.0131 -0.0000 0.0000 -0.0000 3.3954 -5.9733 2.0451 -0.0000 0.0000 -0.0000 -34.6294 -2.5470 2.4608 -42.5309 -12.6866 -17.4743 -10.9617 5.2133 44.7989 11.9977 -5.4192 -1.0739 -0.0000 0.0000 -0.0000 34.5234 5.0865 3.4825 38.8986 5.7210 -17.0967 10.5238 5.0060 17.0072 -10.8692 1.7608 -0.6547 0.0000 0.0000 0.0000 3.3775 6.4190 -10.7359 7.4096 3.1238 59.8911 1.4712 -0.1723 1.3904 0.0000 0.0000 -0.0000
27.2572 38.4226 -7.1601 1.2351 -0.5210 -7.8391 0.0000 0.0000 0.0000 7.9325 -0.7009 -4.9616 -1.1059 -5.4289 22.9716 -6.5256 -0.1368 -12.9085 0.0000 -0.0000 0.0000 0.0000 0.0000 0.0000 1.4579 0.7438 11.5923 2.5076 0.4120 -2.8233 -0.0000 0.0000 -0.0000 3.3036 -6.0837 2.4802 -0.0000 0.0000 -0.0000 -34.6264 -2.5504 2.4620 -42.1711 -12.3285 -17.6733 -11.0582 5.2677 42.6662 12.5240 -4.9484 -1.0764 -0.0000 0.0000 -0.0000 34.5474 5.0966 3.4886 39.0313 7.0580 -15.4567 10.7371 6.2385 16.9196 -10.6062 1.8677 -0.6474 0.0000 0.0000 0.0000 3.0705 4.2547 -12.5365 10.5858 5.5441 55.8313 3.0238 -0.2728 -0.8878 0.0000 0.0000 -0.0000
27.3525 38.5714 -6.2378 1.5814 -2.7533 -7.8484 0.0000 0.0000 0.0000 7.2384 -1.2023 -2.7466 0.2905 -2.8596 21.8753 -5.8570 -0.1878 -13.9986 0.0000 -0.0000 0.0000 0.0000 0.0000 0.0000 1.4980 1.0010 11.1945 2.1733 0.7281 -2.4343 -0.0000 0.0000 -0.0000 3.0295 -5.9254 2.6937 -0.0000 0.0000 -0.0000 -34.7875 -2.5422 2.4582 -41.5696 -12.0701 -17.8320 -11.1490 5.2914 41.6711 13.2465 -4.9513 -1.1420 -0.0000 0.0000 -0.0000 34.3540 5.0689 3.4606 39.4272 8.5159 -13.8384 10.8308 7.0182 16.7974 -10.5610 2.0329 -0.6584 0.0000 0.0000 0.0000 2.8972 2.1972 -13.8132 12.1472 8.1576 49.9239 3.4972 -0.2388 -2.9717 0.0000 0.0000 -0.0000
27.4158 38.7311 -5.3225 1.8630 -4.7088 -7.7082 0.0000 0.0000 0.0000 6.5367 -1.6767 -0.5557 1.5370 -0.3991 20.4373 -5.5184 -0.2102 -14.5804 0.0000 -0.0000 0.0000 0.0000 0.0000 0.0000 1.4325 1.1288 10.7267 2.0324 0.8757 -2.1792 -0.0000 0.0000 -0.0000 2.6229 -5.4889 2.8949 -0.0000 0.0000 -0.0000 -34.8351 -2.5140 2.4530 -41.0476 -11.9821 -18.1612 -11.0341 5.2772 42.2973 13.6027 -5.4098 -1.2241 -0.0000 0.0000 -0.0000 34.1378 5.0434 3.4316 39.8962 9.7210 -12.7426 10.8461 7.4555 16.8658 -10.5499 2.1883 -0.6705 0.0000 0.0000 0.0000 2.7948 0.3428 -14.7007 11.5855 10.2565 42.3645 3.7682 -0.2569 -3.0129 0.0000 0.0000 -0.0000
27.4423 38.8812 -4.4291 2.0415 -6.3460 -7.4836 0.0000 0.0000 0.0000 5.9929 -2.0420 1.5445 2.3574 1.6017 18.8300 -5.9179 -0.2266 -14.6751 0.0000 -0.0000 0.0000 0.0000 0.0000 0.0000 1.3151 1.1530 10.3276 1.9631 0.9023 -1.9901 -0.0000 0.0000 -0.0000 2.3381 -5.0502 2.8509 -0.0000 0.0000 -0.0000 -34.5959 -2.5315 2.4524 -40.7523 -12.1396 -18.6730 -10.7515 5.2535 43.3687 13.3309 -5.5960 -1.2189 -0.0000 0.0000 -0.0000 34.1671 5.0550 3.4388 40.1415 10.5213 -12.1192 10.7925 7.7829 17.0638 -10.2957 2.3752 -0.6690 0.0000 0.0000 0.0000 2.7095 -0.9761 -15.1083 9.4121 11.3222 33.4223 3.6677 -0.3060 -1.4998 0.0000 0.0000 -0.0000
27.4406 39.0053 -3.5450 2.0359 -7.6761 -7.1670 0.0000 0.0000 0.0000 5.6690 -2.3126 3.6022 2.8518 3.1624 16.9916 -6.7233 -0.2470 -14.6277 0.0000 -0.0000 0.0000 0.0000 0.0000 0.0000 1.2086 1.0885 9.8720 2.0212 0.8115 -1.6392 -0.0000 0.0000 -0.0000 2.3026 -4.8674 2.3746 -0.0000 0.0000 -0.0000 -34.3021 -2.6026 2.4631 -40.4840 -12.5023 -19.2164 -10.4610 5.2392 44.0564 12.8031 -5.2969 -1.1374 -0.0000 0.0000 -0.0000 34.3592 5.0818 3.4663 40.1637 10.9624 -11.6763 10.7226 8.0986 17.1154 -9.8930 2.5265 -0.6537 0.0000 0.0000 0.0000 2.5514 -1.1222 -15.0144 6.1724 10.4386 23.6204 2.6491 -0.2546 -0.2925 0.0000 0.0000 -0.0000
27.4293 39.1299 -2.6661 1.8581 -8.8153 -6.7710 0.0000 0.0000 0.0000 5.4824 -2.5497 5.8116 3.1753 4.6466 14.6383 -7.0981 -0.2380 -14.3225 0.0000 -0.0000 0.0000 0.0000 0.0000 0.0000 1.1448 0.9854 9.4129 2.2619 0.6495 -1.2953 -0.0000 0.0000 -0.0000 2.4131 -4.9512 1.7741 -0.0000 0.0000 -0.0000 -34.2662 -2.6513 2.4805 -40.0482 -12.7882 -19.6612 -10.2464 5.2272 44.6078 12.6322 -4.9991 -1.0912 -0.0000 0.0000 -0.0000 34.4728 5.0947 3.4814 40.1389 11.0041 -11.3134 10.7329 8.2477 16.9962 -9.7341 2.5008 -0.6408 0.0000 0.0000 0.0000 2.1229 0.2963 -14.5439 2.6665 6.7087 13.8208 0.4574 -0.0466 0.1607 0.0000 0.0000 -0.0000
27.4239 39.2342 -1.7830 1.6507 -9.8517 -6.4092 0.0000 0.0000 0.0000 5.2886 -2.8421 8.0208 3.3153 6.1910 12.3967 -6.9947 -0.2072 -13.8935 0.0000 -0.0000 0.0000 0.0000 0.0000 0.0000 1.1138 0.8915 9.1400 2.5167 0.5021 -1.2229 -0.0000 0.0000 -0.0000 2.5767 -5.1409 1.3886 -0.0000 0.0000 -0.0000 -34.4377 -2.6605 2.4949 -39.5367 -12.7795 -19.9914 -10.0845 5.2097 45.3312 12.9227 -4.9966 -1.1173 -0.0000 0.0000 -0.0000 34.5174 5.1017 3.4881 40.0611 10.5815 -11.3906 10.8773 7.9226 17.2368 -9.9468 2.3520 -0.6437 0.0000 0.0000 0.0000 1.6967 1.7884 -13.8637 0.0142 2.3271 5.2545 -3.4412 0.3475 0.2752 0.0000 0.0000 -0.0000
27.4254 39.2347 -0.8529 1.4896 -10.7112 -6.1654 0.0000 0.0000 0.0000 5.0222 -3.2735 9.7968 3.3505 7.5475 11.4788 -7.0663 -0.2294 -14.2024 0.0000 -0.0000 0.0000 0.0000 0.0000 0.0000 1.1097 0.7521 9.0095 2.6096 0.3425 -1.2840 -0.0000 0.0000 -0.0000 2.7782 -5.4096 1.1746 -0.0000 0.0000 -0.0000 -34.5151 -2.6844 2.5094 -39.1896 -12.5908 -20.2693 -9.9287 5.1939 45.9782 13.2193 -5.0211 -1.1467 -0.0000 0.0000 -0.0000 34.6067 5.1132 3.5006 39.8588 9.8714 -12.3645 11.0826 6.8784 18.3913 -10.2379 2.2895 -0.6582 0.0000 0.0000 0.0000 1.6935 1.2024 -13.3302 -1.4299 0.9727 -0.4714 -8.1303 0.7858 -0.2842 0.0000 0.0000 -0.0000
27.4294 39.1298 0.1384 1.3368 -11.3488 -6.0327 0.0000 0.0000 0.0000 4.6679 -3.8839 11.1837 3.4380 8.6852 11.8052 -7.2053 -0.3078 -15.3364 0.0000 -0.0000 0.0000 0.0000 0.0000 0.0000 1.0887 0.5103 8.9663 2.6572 0.0849 -1.3260 -0.0000 0.0000 -0.0000 2.9997 -5.6662 0.9215 -0.0000 0.0000 -0.0000 -34.4116 -2.7168 2.5162 -39.0708 -12.4751 -20.5798 -9.7463 5.1848 46.3855 13.1825 -4.8700 -1.1274 -0.0000 0.0000 -0.0000 34.6318 5.1113 3.5020 39.6504 9.0657 -13.9456 11.1564 5.2387 20.0065 -10.3665 2.3319 -0.6702 0.0000 0.0000 0.0000 1.0283 0.7909 -13.4730 -1.6943 0.0652 -1.7223 -10.3815 0.9117 -1.4714 0.0000 0.0000 -0.0000
27.4282 38.9876 1.1819 1.2667 -12.0684 -6.0547 0.0000 0.0000 0.0000 4.1240 -4.5581 12.4233 3.6548 9.9262 12.9059 -6.9545 -0.3642 -16.3370 0.0000 -0.0000 0.0000 0.0000 0.0000 0.0000 0.9194 0.3474 9.0328 2.8468 -0.1176 -1.3944 -0.0000 0.0000 -0.0000 3.1466 -6.0239 0.6329 -0.0000 0.0000 -0.0000 -34.3506 -2.7093 2.5118 -38.9753 -12.5973 -20.9838 -9.5100 5.1738 46.8726 12.9896 -4.7442 -1.0969 -0.0000 0.0000 -0.0000 34.4997 5.0920 3.4826 39.4932 7.9876 -15.3420 10.9951 3.4843 20.9008 -10.4359 2.2248 -0.6661 0.0000 0.0000 0.0000 0.0644 -0.0259 -14.0389 -1.5013 -1.0517 0.8851 -8.3099 0.7106 -1.6450 0.0000 0.0000 -0.0000
27.4014 38.8458 2.2979 1.4930 -13.3159 -6.3296 0.0000 0.0000 0.0000 3.2556 -4.7980 13.4186 4.0950 11.0344 15.1223 -7.0367 -0.3832 -16.5808 0.0000 -0.0000 0.0000 0.0000 0.0000 0.0000 0.5225 0.5401 8.9397 3.0196 0.0399 -1.2350 -0.0000 0.0000 -0.0000 3.2483 -6.6809 0.3559 -0.0000 0.0000 -0.0000 -34.4629 -2.6815 2.5050 -38.7142 -12.9913 -21.4551 -9.2296 5.1569 47.5823 13.0040 -4.8062 -1.1047 -0.0000 0.0000 -0.0000 34.4960 5.0945 3.4833 39.1334 6.4186 -16.6648 10.7114 1.8739 20.9684 -10.6440 1.7931 -0.6434 0.0000 0.0000 0.0000 -0.9654 -0.9208 -14.2755 -1.2505 -2.4272 4.7394 -4.4183 0.4467 0.3725 0.0000 0.0000 -0.0000
27.3363 38.7479 3.4849 2.0735 -15.0542 -6.7902 0.0000 0.0000 0.0000 1.9625 -4.4935 14.0523 4.8470 11.5213 18.2530 -7.8747 -0.3712 -15.9214 0.0000 -0.0000 0.0000 0.0000 0.0000 0.0000 -0.0361 0.9744 8.3595 2.8823 0.4875 -0.5167 -0.0000 0.0000 -0.0000 3.4622 -7.4281 0.1719 -0.0000 0.0000 -0.0000 -34.5302 -2.6652 2.5026 -38.4581 -13.4026 -21.8873 -8.9683 5.1463 48.0503 13.2670 -4.8706 -1.1349 -0.0000 0.0000 -0.0000 34.9024 5.1439 3.5391 38.4809 4.6491 -18.2608 10.3297 0.2957 20.9002 -11.0018 1.2392 -0.6174 0.0000 0.0000 0.0000 -1.8316 -1.5486 -13.8783 -0.9625 -2.5356 7.8608 -2.5103 0.3083 3.3304 0.0000 0.0000 -0.0000
27.2604 38.6592 4.6608 2.8353 -16.7489 -7.2028 0.0000 0.0000 0.0000 0.1091 -4.6794 13.5073 6.2808 11.9064 23.1236 -7.2041 -0.2440 -14.4224 0.0000 -0.0000 0.0000 0.0000 0.0000 0.0000 -0.7523 1.1881 7.6726 2.5884 0.7457 0.1820 -0.0000 0.0000 -0.0000 3.7936 -7.8067 0.4168 -0.0000 0.0000 -0.0000 -34.3342 -2.6322 2.4770 -38.5523 -13.3044 -22.1981 -8.7866 5.1527 47.8939 13.4759 -4.7772 -1.1435 -0.0000 0.0000 -0.0000 35.3659 5.1931 3.6001 37.9955 3.1014 -20.0101 9.7913 -1.2938 21.1224 -11.3564 0.9160 -0.6087 0.0000 0.0000 0.0000 -2.5139 -1.6455 -13.5486 -0.6528 -0.8925 10.8326 -2.6027 0.3345 4.5327 0.0000 0.0000 -0.0000
27.2017 38.5326 5.7223 3.6652 -18.1627 -7.5320 0.0000 0.0000 0.0000 -2.1424 -5.3428 11.0256 8.5680 12.0619 30.7442 -1.7775 -0.0647 -10.9634 0.0000 -0.0000 0.0000 0.0000 0.0000 0.0000 -1.8538 1.0648 7.8775 2.7120 0.6086 -0.3292 -0.0000 0.0000 -0.0000 4.2301 -7.7384 1.0071 -0.0000 0.0000 -0.0000 -34.1179 -2.6204 2.4588 -38.9052 -12.5323 -22.3909 -8.7049 5.1674 47.4091 13.4064 -4.6913 -1.1280 -0.0000 0.0000 -0.0000 35.2290 5.1611 3.5749 38.1334 1.6956 -21.5994 9.2071 -2.5120 21.3378 -11.5391 0.9053 -0.6176 0.0000 0.0000 0.0000 -3.1870 -1.1712 -13.6072 -0.6840 0.9119 14.3288 -2.1399 0.2554 3.0967 0.0000 0.0000 -0.0000
27.1664 38.3722 6.6095 4.5799 -19.7101 -8.1087 0.0000 0.0000 0.0000 -4.2256 -5.1842 6.8574 10.4229 10.5188 40.3012 7.7263 -0.4962 -4.6961 0.0000 -0.0000 0.0000 0.0000 0.0000 0.0000 -3.3268 1.0090 9.5012 3.4471 0.4425 -2.1451 -0.0000 0.0000 -0.0000 4.3400 -7.6468 1.5494 -0.0000 0.0000 -0.0000 -34.3258 -2.7511 2.5245 -38.9495 -11.7423 -22.3958 -8.7858 5.1792 46.9607 13.1960 -4.7850 -1.1195 -0.0000 0.0000 -0.0000 34.4949 5.0501 3.4653 38.6542 0.3164 -22.6091 8.8446 -2.8996 20.7965 -11.4713 1.0058 -0.6231 0.0000 0.0000 0.0000 -3.8937 -0.4097 -13.5438 -1.0999 1.9678 17.7942 -0.7482 0.0751 0.2656 0.0000 0.0000 -0.0000
